<svg id="visual" viewBox="0 0 960 300" width="960" height="300" xmlns="http://www.w3.org/2000/svg" xmlns:xlink="http://www.w3.org/1999/xlink" version="1.1"><rect x="0" y="0" width="960" height="300" fill="#000000"></rect><path d="M0 86L20 89.7C40 93.3 80 100.7 120 101.2C160 101.7 200 95.3 240 87.2C280 79 320 69 360 71.7C400 74.3 440 89.7 480 95.2C520 100.7 560 96.3 600 95C640 93.7 680 95.3 720 92C760 88.7 800 80.3 840 83.3C880 86.3 920 100.7 940 107.8L960 115L960 0L940 0C920 0 880 0 840 0C800 0 760 0 720 0C680 0 640 0 600 0C560 0 520 0 480 0C440 0 400 0 360 0C320 0 280 0 240 0C200 0 160 0 120 0C80 0 40 0 20 0L0 0Z" fill="#d66f9d"></path><path d="M0 45L20 46.7C40 48.3 80 51.7 120 52.8C160 54 200 53 240 52.8C280 52.7 320 53.3 360 59.2C400 65 440 76 480 78.5C520 81 560 75 600 73.2C640 71.3 680 73.7 720 76.8C760 80 800 84 840 84C880 84 920 80 940 78L960 76L960 0L940 0C920 0 880 0 840 0C800 0 760 0 720 0C680 0 640 0 600 0C560 0 520 0 480 0C440 0 400 0 360 0C320 0 280 0 240 0C200 0 160 0 120 0C80 0 40 0 20 0L0 0Z" fill="#d55f92"></path><path d="M0 29L20 34.2C40 39.3 80 49.7 120 53.5C160 57.3 200 54.7 240 50.3C280 46 320 40 360 41.2C400 42.3 440 50.7 480 55.8C520 61 560 63 600 58.3C640 53.7 680 42.3 720 42.2C760 42 800 53 840 53.3C880 53.7 920 43.3 940 38.2L960 33L960 0L940 0C920 0 880 0 840 0C800 0 760 0 720 0C680 0 640 0 600 0C560 0 520 0 480 0C440 0 400 0 360 0C320 0 280 0 240 0C200 0 160 0 120 0C80 0 40 0 20 0L0 0Z" fill="#d34d87"></path><path d="M0 15L20 18C40 21 80 27 120 30.5C160 34 200 35 240 34.7C280 34.3 320 32.7 360 30.5C400 28.3 440 25.7 480 26.3C520 27 560 31 600 32.2C640 33.3 680 31.7 720 32.7C760 33.7 800 37.3 840 36.2C880 35 920 29 940 26L960 23L960 0L940 0C920 0 880 0 840 0C800 0 760 0 720 0C680 0 640 0 600 0C560 0 520 0 480 0C440 0 400 0 360 0C320 0 280 0 240 0C200 0 160 0 120 0C80 0 40 0 20 0L0 0Z" fill="#d2377c"></path></svg>