<svg id="visual" viewBox="0 0 960 300" width="960" height="300" xmlns="http://www.w3.org/2000/svg" xmlns:xlink="http://www.w3.org/1999/xlink" version="1.1"><rect x="0" y="0" width="960" height="300" fill="#d2377c"></rect><path d="M0 102L20 98C40 94 80 86 120 85.3C160 84.7 200 91.3 240 89.7C280 88 320 78 360 74.5C400 71 440 74 480 81C520 88 560 99 600 99.2C640 99.3 680 88.7 720 89.3C760 90 800 102 840 101.7C880 101.3 920 88.7 940 82.3L960 76L960 0L940 0C920 0 880 0 840 0C800 0 760 0 720 0C680 0 640 0 600 0C560 0 520 0 480 0C440 0 400 0 360 0C320 0 280 0 240 0C200 0 160 0 120 0C80 0 40 0 20 0L0 0Z" fill="#6ddbe8"></path><path d="M0 91L20 84.5C40 78 80 65 120 61.8C160 58.7 200 65.3 240 64.3C280 63.3 320 54.7 360 54.7C400 54.7 440 63.3 480 63.3C520 63.3 560 54.7 600 51.5C640 48.3 680 50.7 720 52.5C760 54.3 800 55.7 840 61.7C880 67.7 920 78.3 940 83.7L960 89L960 0L940 0C920 0 880 0 840 0C800 0 760 0 720 0C680 0 640 0 600 0C560 0 520 0 480 0C440 0 400 0 360 0C320 0 280 0 240 0C200 0 160 0 120 0C80 0 40 0 20 0L0 0Z" fill="#46cff0"></path><path d="M0 44L20 43.2C40 42.3 80 40.7 120 39.2C160 37.7 200 36.3 240 37.2C280 38 320 41 360 41.5C400 42 440 40 480 37.3C520 34.7 560 31.3 600 31.2C640 31 680 34 720 36C760 38 800 39 840 43.5C880 48 920 56 940 60L960 64L960 0L940 0C920 0 880 0 840 0C800 0 760 0 720 0C680 0 640 0 600 0C560 0 520 0 480 0C440 0 400 0 360 0C320 0 280 0 240 0C200 0 160 0 120 0C80 0 40 0 20 0L0 0Z" fill="#1cc2f8"></path><path d="M0 43L20 39.8C40 36.7 80 30.3 120 29.2C160 28 200 32 240 34.2C280 36.3 320 36.7 360 36.7C400 36.7 440 36.3 480 35.7C520 35 560 34 600 30.5C640 27 680 21 720 22C760 23 800 31 840 34.2C880 37.3 920 35.7 940 34.8L960 34L960 0L940 0C920 0 880 0 840 0C800 0 760 0 720 0C680 0 640 0 600 0C560 0 520 0 480 0C440 0 400 0 360 0C320 0 280 0 240 0C200 0 160 0 120 0C80 0 40 0 20 0L0 0Z" fill="#16b3fd"></path></svg>