<svg id="visual" viewBox="0 0 960 300" width="960" height="300" xmlns="http://www.w3.org/2000/svg" xmlns:xlink="http://www.w3.org/1999/xlink" version="1.1"><rect x="0" y="0" width="960" height="300" fill="#16b3fd"></rect><path d="M0 75L20 81.5C40 88 80 101 120 101.3C160 101.7 200 89.3 240 85.8C280 82.3 320 87.7 360 85C400 82.3 440 71.7 480 72.5C520 73.3 560 85.7 600 92.8C640 100 680 102 720 97.7C760 93.3 800 82.7 840 80.7C880 78.7 920 85.3 940 88.7L960 92L960 0L940 0C920 0 880 0 840 0C800 0 760 0 720 0C680 0 640 0 600 0C560 0 520 0 480 0C440 0 400 0 360 0C320 0 280 0 240 0C200 0 160 0 120 0C80 0 40 0 20 0L0 0Z" fill="#dc8fd4"></path><path d="M0 62L20 66.7C40 71.3 80 80.7 120 81.5C160 82.3 200 74.7 240 67C280 59.3 320 51.7 360 55.3C400 59 440 74 480 81.7C520 89.3 560 89.7 600 89.5C640 89.3 680 88.7 720 81.8C760 75 800 62 840 60.2C880 58.3 920 67.7 940 72.3L960 77L960 0L940 0C920 0 880 0 840 0C800 0 760 0 720 0C680 0 640 0 600 0C560 0 520 0 480 0C440 0 400 0 360 0C320 0 280 0 240 0C200 0 160 0 120 0C80 0 40 0 20 0L0 0Z" fill="#d16ecd"></path><path d="M0 39L20 42.3C40 45.7 80 52.3 120 53.2C160 54 200 49 240 49.2C280 49.3 320 54.7 360 57.8C400 61 440 62 480 57.7C520 53.3 560 43.7 600 42.7C640 41.7 680 49.3 720 49C760 48.7 800 40.3 840 39.3C880 38.3 920 44.7 940 47.8L960 51L960 0L940 0C920 0 880 0 840 0C800 0 760 0 720 0C680 0 640 0 600 0C560 0 520 0 480 0C440 0 400 0 360 0C320 0 280 0 240 0C200 0 160 0 120 0C80 0 40 0 20 0L0 0Z" fill="#c349c7"></path><path d="M0 26L20 26C40 26 80 26 120 26.5C160 27 200 28 240 30.8C280 33.7 320 38.3 360 40.8C400 43.3 440 43.7 480 42.8C520 42 560 40 600 37.8C640 35.7 680 33.3 720 30.8C760 28.3 800 25.7 840 25C880 24.3 920 25.7 940 26.3L960 27L960 0L940 0C920 0 880 0 840 0C800 0 760 0 720 0C680 0 640 0 600 0C560 0 520 0 480 0C440 0 400 0 360 0C320 0 280 0 240 0C200 0 160 0 120 0C80 0 40 0 20 0L0 0Z" fill="#b30fc1"></path></svg>