<svg id="visual" viewBox="0 0 960 300" width="960" height="300" xmlns="http://www.w3.org/2000/svg" xmlns:xlink="http://www.w3.org/1999/xlink" version="1.1"><rect x="0" y="0" width="960" height="300" fill="#b30fc1"></rect><path d="M0 118L20 111.7C40 105.3 80 92.7 120 83.5C160 74.3 200 68.7 240 69.8C280 71 320 79 360 85.8C400 92.7 440 98.3 480 96.3C520 94.3 560 84.7 600 81.2C640 77.7 680 80.3 720 78.8C760 77.3 800 71.7 840 70.5C880 69.3 920 72.7 940 74.3L960 76L960 0L940 0C920 0 880 0 840 0C800 0 760 0 720 0C680 0 640 0 600 0C560 0 520 0 480 0C440 0 400 0 360 0C320 0 280 0 240 0C200 0 160 0 120 0C80 0 40 0 20 0L0 0Z" fill="#605757"></path><path d="M0 58L20 60.8C40 63.7 80 69.3 120 75.2C160 81 200 87 240 87C280 87 320 81 360 80.8C400 80.7 440 86.3 480 88.8C520 91.3 560 90.7 600 82.7C640 74.7 680 59.3 720 57.7C760 56 800 68 840 72.5C880 77 920 74 940 72.5L960 71L960 0L940 0C920 0 880 0 840 0C800 0 760 0 720 0C680 0 640 0 600 0C560 0 520 0 480 0C440 0 400 0 360 0C320 0 280 0 240 0C200 0 160 0 120 0C80 0 40 0 20 0L0 0Z" fill="#4c4747"></path><path d="M0 45L20 43C40 41 80 37 120 35.5C160 34 200 35 240 39C280 43 320 50 360 51.8C400 53.7 440 50.3 480 46.3C520 42.3 560 37.7 600 35.8C640 34 680 35 720 35.5C760 36 800 36 840 38C880 40 920 44 940 46L960 48L960 0L940 0C920 0 880 0 840 0C800 0 760 0 720 0C680 0 640 0 600 0C560 0 520 0 480 0C440 0 400 0 360 0C320 0 280 0 240 0C200 0 160 0 120 0C80 0 40 0 20 0L0 0Z" fill="#3a3737"></path><path d="M0 26L20 24.2C40 22.3 80 18.7 120 17C160 15.3 200 15.7 240 15.7C280 15.7 320 15.3 360 18.3C400 21.3 440 27.7 480 28.8C520 30 560 26 600 26.3C640 26.7 680 31.3 720 31C760 30.7 800 25.3 840 22.2C880 19 920 18 940 17.5L960 17L960 0L940 0C920 0 880 0 840 0C800 0 760 0 720 0C680 0 640 0 600 0C560 0 520 0 480 0C440 0 400 0 360 0C320 0 280 0 240 0C200 0 160 0 120 0C80 0 40 0 20 0L0 0Z" fill="#282828"></path></svg>